<svg xmlns="http://www.w3.org/2000/svg" viewBox="0 0 199.2 574.21"><defs><style>.cls-1{fill:none;stroke:#000;stroke-miterlimit:10;}.cls-2{font-size:52px;font-family:Gotham-Medium, Gotham;letter-spacing:-0.03em;}.cls-3{letter-spacing:-0.02em;}.cls-4{font-size:10px;font-family:Gotham-Light, Gotham;}.cls-4,.cls-8{letter-spacing:0em;}.cls-5{letter-spacing:-0.02em;}.cls-6{letter-spacing:-0.01em;}.cls-7{letter-spacing:0.01em;}.cls-9{letter-spacing:-0.01em;}.cls-10{letter-spacing:-0.07em;}</style></defs><title>Fichier 3</title><g id="Calque_2" data-name="Calque 2"><g id="Calque_1-2" data-name="Calque 1"><path class="cls-1" d="M198.69,554.71a7.25,7.25,0,0,1-5.3,7c-10.45,3-36.43,9.11-78.4,11.58-45.32,2.67-94.23-7.57-108.93-11.63A7.57,7.57,0,0,1,.5,554.5V246c0-59.2,9-71.22,35.21-124.26C54.07,84.63,53,58.18,52.39,49.94A2.08,2.08,0,0,0,50.31,48H46.4a2.09,2.09,0,0,1-2.09-2l0-1.12a2.09,2.09,0,0,1,2.09-2.15h106a2.08,2.08,0,0,1,2.09,2.09h0a2.09,2.09,0,0,1-2.09,2.09H149A2.08,2.08,0,0,0,147,49.15c.87,9.87,1.19,37.94,16.34,69.55,26,54.18,35.39,72,35.39,121.25C198.68,257.49,198.71,514.27,198.69,554.71Z"/><text class="cls-2" transform="translate(32.41 270.92)">F<tspan class="cls-3" x="32.45" y="0">eed</tspan></text><path d="M47.6,42.71V6a2.08,2.08,0,0,1,1.6-2C54,2.84,69.57-.13,99.7,0S145.18,2.81,150,3.81a2.09,2.09,0,0,1,1.64,2V42.71Z"/><circle cx="163.83" cy="265.98" r="3.19"/><rect x="57.02" y="285.96" width="2.08" height="60.63"/><text class="cls-4" transform="translate(64.85 292.26)">= Un <tspan class="cls-5" x="26.18" y="0">r</tspan><tspan x="29.98" y="0">epas </tspan><tspan class="cls-6" x="56.38" y="0">c</tspan><tspan class="cls-7" x="61.99" y="0">omplet</tspan><tspan class="cls-5"><tspan x="0" y="13">F</tspan><tspan class="cls-8" x="6.36" y="13">abriqué en F</tspan><tspan x="68.89" y="13">r</tspan><tspan class="cls-8" x="72.69" y="13">an</tspan><tspan class="cls-9" x="84.66" y="13">c</tspan><tspan class="cls-7" x="90.27" y="13">e</tspan></tspan><tspan x="0" y="26">Sans Lac</tspan><tspan class="cls-6" x="44.28" y="26">t</tspan><tspan x="48.18" y="26">ose</tspan><tspan x="0" y="39">Sans glu</tspan><tspan class="cls-6" x="41.86" y="39">t</tspan><tspan x="45.76" y="39">en</tspan><tspan class="cls-10"><tspan x="0" y="52">V</tspan><tspan class="cls-8" x="6.85" y="52">egan</tspan></tspan></text></g></g></svg>